<svg width="144" height="56" viewBox="0 0 144 56" fill="none" xmlns="http://www.w3.org/2000/svg">
<g clip-path="url(#clip0_36_4198)">
<path d="M14.8037 37.8584C13.2049 37.9696 10.8939 38.0416 9.60039 38.0319C7.29799 38.0148 2.26323 38.0038 2.19116 37.2147V55.3982H17.4151V37.2147C17.4127 37.5653 16.1461 37.7644 14.8049 37.8572" fill="url(#paint0_linear_36_4198)"/>
<path d="M1.48402 43.8263C1.3912 44.1256 1.47914 44.42 1.67945 44.4823C1.88099 44.5445 2.11917 44.3516 2.212 44.0523C2.30483 43.7531 2.21689 43.4587 2.01657 43.3964C1.99092 43.3891 1.96527 43.3842 1.9384 43.3842C1.75763 43.3842 1.56586 43.5637 1.48402 43.8263Z" fill="#F3E9D9"/>
<path d="M17.7633 46.6283C17.431 46.7309 17.2869 47.2159 17.4408 47.7093C17.5947 48.204 17.9868 48.5216 18.319 48.419C18.65 48.3164 18.7954 47.8315 18.6415 47.338C18.5071 46.9056 18.1908 46.6088 17.8927 46.6088C17.8488 46.6088 17.806 46.6149 17.7645 46.6283" fill="#F3E9D9"/>
<path d="M17.7425 43.7298C17.6436 43.8263 17.6399 44.0816 17.7339 44.299C17.828 44.5165 17.9856 44.6142 18.0845 44.5177C18.1834 44.4212 18.1871 44.1659 18.093 43.9485C18.0234 43.7885 17.9196 43.6932 17.8304 43.6932C17.7987 43.6932 17.7681 43.7054 17.7425 43.7311" fill="#F3E9D9"/>
<path d="M4.28111 47.7533C4.1382 47.818 4.06491 48.0733 4.11621 48.3237C4.16751 48.5729 4.3263 48.7231 4.46799 48.6571C4.61089 48.5912 4.68418 48.3371 4.63288 48.0867C4.58891 47.8766 4.47043 47.7374 4.34951 47.7374C4.3263 47.7374 4.30431 47.7423 4.28111 47.7533Z" fill="#F3E9D9"/>
<path d="M43.6346 13.5384C42.9946 13.5689 40.1267 13.5079 39.5477 13.5079C39.395 13.5079 39.2424 13.63 39.2424 13.7827C39.2424 13.9964 39.395 14.0881 39.6393 14.0881C41.5606 14.3922 41.6523 16.2537 41.6523 17.4433V23.178C40.6458 22.4463 39.7004 21.6842 38.8161 20.9208L37.4749 19.7616C36.9864 19.3647 34.7902 17.5349 33.388 15.8274L31.5278 13.6007C31.4362 13.4786 31.2529 13.3564 31.1308 13.3564C30.6129 13.3564 29.7579 13.4786 29.24 13.5091C28.7832 13.5396 28.0503 13.387 27.6241 13.6007C27.5935 13.6312 27.563 13.6618 27.563 13.6923C27.563 13.7839 27.5935 13.845 27.7157 13.9671C27.8378 14.0587 30.2782 15.7663 30.2782 17.0781L30.3698 20.067C30.3698 23.0864 30.3393 25.5573 29.5161 28.4546V28.5462C29.5161 28.6683 29.5466 28.8516 29.6993 28.8516C29.7604 28.8516 29.852 28.821 30.0352 28.7294C30.4016 28.3935 30.8279 28.2421 31.2554 28.2421C31.347 28.2421 31.7122 28.3031 31.7733 28.3031C32.1092 28.3031 32.1702 28.0894 32.1702 27.7852C32.1397 27.6631 31.8038 25.2532 31.8038 23.9121V22.6308C31.8038 21.8991 31.8038 19.7946 31.8954 19.245C31.8954 19.0312 32.0481 18.9701 32.0786 18.9701C32.1702 18.9701 32.2313 19.0007 32.2619 19.0312L40.3136 25.9543C41.0147 26.565 41.3811 26.9302 41.9002 27.6924C42.0529 27.9367 42.4486 28.5462 42.5708 28.5462C42.6318 28.5462 42.6624 28.5462 42.6929 28.5157C42.8761 28.5157 42.9372 28.4546 42.9372 28.2103L42.9067 23.1169L42.9372 19.1216C42.9372 18.7246 42.9372 15.6747 43.8826 14.0893C43.9742 13.9671 43.9742 13.845 43.9742 13.7534C43.9742 13.6312 43.7299 13.5396 43.6383 13.5396L43.6346 13.5384Z" fill="#F3E9D9"/>
<path d="M58.855 26.3183C58.7634 26.3183 58.6412 26.3794 58.6107 26.4099C58.1221 26.7153 57.7875 26.929 57.1767 26.929C51.7475 26.929 50.0094 22.1104 50.0094 21.9578C50.0094 21.6524 50.162 21.4399 51.1685 21.4399H53.8215C55.0111 21.4399 56.1703 21.4704 57.2684 21.5315C57.6959 21.5315 57.9695 21.2872 58.0305 21.104L58.6706 19.7005C58.7011 19.5479 58.6706 19.273 58.4873 19.273C58.3957 19.273 58.3041 19.273 58.2736 19.3036C56.6869 19.8825 55.1321 20.2184 50.8925 20.2184C49.4292 20.2184 49.3363 19.7299 49.3363 18.2971C49.3363 17.5044 49.489 15.7345 50.0375 15.3693C50.2512 15.2167 51.0439 15.2167 51.4409 15.2167C53.0568 15.2167 56.8702 15.4609 57.327 17.2296C57.3881 17.3823 57.6629 18.1139 57.9059 17.8696C57.9975 17.8696 58.0586 17.778 58.0586 17.6864C58.0892 17.6559 58.1197 17.5948 58.1197 17.5643C58.0281 17.1062 57.9975 16.6799 57.9975 16.2219C57.9975 15.9165 58.1197 14.3922 58.1197 14.2395C58.1197 13.7204 57.9365 13.1414 57.8449 13.1414L57.8143 13.1109C57.6311 13.1109 57.6006 13.1414 57.3868 13.4773C57.3258 13.63 57.112 13.6911 57.0509 13.63H56.9899C55.1602 13.2025 53.8178 13.1414 52.7503 13.1414C51.1942 13.1414 48.3274 15.0017 47.0767 15.9165C46.7713 17.1062 46.6187 18.2959 46.6187 19.455C46.6187 24.7316 49.4255 26.7446 50.5834 27.3553C52.2605 28.3312 54.7314 28.606 55.1882 28.606C55.5241 28.606 55.86 28.606 56.1947 28.5755C56.439 28.545 56.8347 28.2701 57.079 28.0882C57.7203 27.6607 58.3909 27.2649 59.0309 26.8985C59.092 26.8374 59.153 26.7458 59.153 26.6847C59.153 26.5015 59.0309 26.3183 58.8477 26.3183H58.855Z" fill="#F3E9D9"/>
<path d="M69.5292 20.0352L68.37 19.9742C65.9907 19.852 63.6724 19.6993 63.6724 17.2296C63.6724 17.138 63.6724 16.741 63.8251 15.7346C64.2831 15.5513 64.6178 15.4903 65.5937 15.4903C66.6613 15.4903 69.4669 15.6124 70.0165 17.0146C70.1387 17.3505 70.383 17.9295 70.6566 17.9295C70.9302 17.9295 70.9619 17.6852 70.9619 17.4116C70.9619 17.1062 70.8092 15.8262 70.8092 15.5513C70.8092 14.9724 70.8703 14.3617 70.9925 13.7827L71.0841 13.2941C71.0841 13.1414 71.023 12.8373 70.6871 12.8373C70.4428 12.8373 70.2914 13.3247 70.2596 13.3857C70.2291 13.4163 70.0764 13.7522 70.0153 13.7522C69.9542 13.7522 66.9654 13.2941 66.4157 13.2941C65.9589 13.2941 65.4093 13.3247 65.0429 13.5384C63.8226 14.3006 62.694 15.0945 61.657 15.9788C61.2906 17.4739 61.1086 18.2971 61.1086 19.1509C61.1086 20.707 61.9929 21.7135 64.1585 21.8662L67.2695 22.141C69.3741 22.2937 69.771 23.0558 69.771 24.1845C69.771 24.2761 69.771 25.0077 69.5267 25.7699C69.3435 26.0447 68.1844 26.3183 67.4833 26.3183C65.562 26.3183 63.6101 25.4645 61.7486 23.7252C61.414 23.4809 61.3822 23.4504 61.2307 23.4504C61.0793 23.4504 61.0475 23.5725 61.0475 23.6947C61.0475 24 61.2002 25.3106 61.2002 25.5549C61.2002 25.8908 61.1697 26.1949 61.1391 26.5308L61.017 28.1468C60.9254 28.4522 61.1086 28.5743 61.3834 28.5743C61.7499 28.5743 61.7804 28.4827 61.872 27.5373C61.9025 27.4152 61.9941 27.2942 62.1163 27.2942C62.1468 27.2942 62.1774 27.3248 62.1774 27.3248C63.7335 28.2091 65.4716 28.6061 67.0888 28.6061C67.5456 28.6061 67.8815 28.6061 68.2174 28.2702C69.3765 27.2332 70.5356 26.3183 71.7253 25.434C72.1834 23.6959 72.2738 22.6283 72.2738 22.3841C72.2738 20.3711 71.2368 20.0352 69.5292 20.0352Z" fill="#F3E9D9"/>
<path d="M88.1645 26.1656L88.0729 23.7252L88.0119 17.1978C88.0119 14.7879 88.0119 14.5143 88.2867 14.3006C88.6531 13.9952 88.6837 13.9647 88.6837 13.7815C88.6837 13.6288 88.4699 13.415 88.3172 13.5067H84.9009C84.7482 13.4456 84.5662 13.5983 84.5662 13.7204C84.5662 13.7204 84.5357 13.7509 84.5357 13.812C84.5357 13.8731 84.6273 14.0258 84.6883 14.0563C85.6032 14.5754 85.6032 15.7944 85.6032 17.32V19.3024C85.5116 19.6383 85.3894 19.7897 85.1146 19.7897H79.5021C79.2578 19.7897 78.8621 19.6676 78.8621 19.2413C78.8621 17.4727 78.8621 15.0933 79.3189 10.7621C79.38 10.3358 79.5632 9.63348 79.5632 9.17666C79.5632 8.68809 79.1662 8.62701 79.1052 8.62701C79.0135 8.62701 78.9525 8.65755 78.8914 8.68809C77.4269 9.2072 75.9942 9.63348 74.5907 9.96937C74.377 10.0304 74.3464 10.061 74.3464 10.2747C74.3464 10.3358 74.377 10.3969 74.377 10.4274C74.4075 10.4579 74.9877 10.6106 75.0488 10.6412C75.7804 10.8244 75.9331 11.5866 76.1163 12.35C76.2995 13.845 76.3911 15.3083 76.4217 16.7117L76.4522 17.8708V20.6459C76.4522 23.7264 76.1774 26.4722 76.1468 26.5931C76.0552 27.0805 75.7804 27.4774 75.4457 27.6912C75.3236 27.7523 75.1709 27.8744 75.1709 28.0271C75.1709 28.2103 75.3236 28.3019 75.4457 28.3019H77.306C77.6419 28.3019 79.4105 28.363 79.5327 28.363C79.8075 28.363 79.9602 28.0882 79.9602 28.0882C79.9602 27.7535 79.9602 27.6924 79.5632 27.5092C79.0746 27.1733 78.9842 25.71 78.9842 25.252L78.9537 24.0318C78.9232 23.2085 78.8926 22.4146 78.8926 21.6219C78.8926 21.3776 79.0148 21.1028 79.3201 21.1028H84.9632C85.3296 21.1028 85.5727 21.3776 85.5727 21.7733C85.5727 21.8039 85.5421 28.6366 84.4746 30.9842C84.383 31.1674 83.8651 31.8685 83.8651 32.0517C83.8651 32.1128 83.8651 32.1433 83.8956 32.1739C83.8956 32.296 84.0788 32.3876 84.2315 32.3876L84.3537 32.3571C85.6044 31.8697 86.8845 31.6254 88.1352 31.5644C88.3795 31.5644 88.5615 31.5644 88.6837 31.3812C88.7447 31.3201 88.7447 31.2895 88.7447 31.2285C88.7447 30.9842 88.7447 30.9231 88.6837 30.7399C88.2867 29.1545 88.1645 26.7446 88.1645 26.1644V26.1656Z" fill="#F3E9D9"/>
<path d="M103.943 23.3282L103.028 21.3153C101.961 18.9665 101.412 17.5337 100.314 14.2701C100.131 13.6593 100.009 13.2025 99.5825 13.2025C99.1856 13.2025 97.3558 13.3247 96.9894 13.3247C96.4398 13.3247 95.8913 13.2941 95.3735 13.2636C95.0681 13.2636 94.946 13.5079 94.946 13.5079C94.946 13.8743 95.007 13.9048 95.586 13.9952C96.7451 14.2701 97.3241 14.3922 97.3241 15.1238C97.3241 15.2765 96.6841 17.2284 95.829 19.0581L95.2806 20.3088C95.189 20.5531 94.2436 22.6271 93.7245 23.603C92.9318 25.1274 92.0768 26.5308 91.1619 27.8121C91.0703 27.9037 91.0398 28.0259 91.0398 28.1175C91.0703 28.2702 91.1314 28.3312 91.1925 28.3312L92.6264 28.2702C93.0539 28.2702 93.5108 28.2702 93.9688 28.3007C94.1215 28.3007 94.3047 28.1785 94.3047 28.0564C94.3047 27.9953 94.2436 27.751 94.2436 27.69C94.2436 27.0805 95.189 22.963 95.9817 22.963H100.77C100.922 22.963 101.045 22.9935 101.167 23.1462C101.655 24.2748 102.356 26.074 102.356 27.2332C102.356 27.9953 102.448 28.4228 102.906 28.4228C103.393 28.3618 103.882 28.3312 104.371 28.3007C104.676 28.3007 105.987 28.3923 106.261 28.3923C106.445 28.3923 106.445 28.2396 106.445 28.2091C106.445 28.1175 106.414 28.0564 106.383 27.9953C105.469 26.4392 104.676 24.8843 103.943 23.3282ZM100.223 21.7428C100.039 21.8344 98.2707 21.8344 97.9348 21.8344C97.8432 21.8344 96.5619 21.7733 96.4703 21.6817C96.3787 21.5901 96.2871 21.468 96.2871 21.3153C96.2871 21.2542 96.3176 21.1932 96.3482 21.1015L98.0863 17.2284C98.1473 17.1062 98.2389 16.9841 98.3916 16.9841C98.4832 16.9841 98.6359 17.1368 98.6664 17.2284C98.7275 17.381 98.8191 17.5325 98.8802 17.6852L100.375 21.2542C100.406 21.3153 100.436 21.4069 100.436 21.468C100.436 21.5901 100.314 21.7123 100.223 21.7428Z" fill="#F3E9D9"/>
<path d="M127.246 13.6605C127.123 13.63 126.178 13.5995 126.117 13.5995C125.72 13.5995 123.951 13.5384 123.585 13.5384C123.402 13.5384 123.249 13.63 123.188 13.7521L121.846 16.741C121.236 18.0834 118.704 23.5126 117.911 23.5126L117.82 23.4516C117.637 23.2073 116.752 21.8039 116.569 21.4997L116.082 20.6459C115.715 20.0352 114.953 18.6941 113.641 16.0704L112.482 13.7216C112.329 13.3857 112.116 13.3246 111.72 13.3246L107.968 13.4468C107.784 13.4468 107.693 13.5995 107.693 13.7216C107.693 13.9354 108.09 14.0868 108.363 14.1491C109.858 14.6059 109.858 15.8567 109.858 16.6799L109.797 18.0834L109.706 19.5173L109.523 21.744C109.431 23.3294 109.188 26.929 108.302 27.966C108.272 27.9965 108.272 28.0271 108.272 28.0576C108.18 28.1492 108.394 28.3019 108.516 28.3019H110.895C111.018 28.3019 111.17 28.1492 111.17 28.0576C111.17 27.6912 110.895 26.1363 110.895 25.7699C110.834 25.0688 110.834 24.3359 110.865 23.6653L110.987 21.0111C111.018 20.6447 111.17 18.6929 111.292 18.4486C111.354 18.3264 111.415 18.3264 111.476 18.3264C111.567 18.3264 111.598 18.3875 111.598 18.418L113.733 21.9565C115.075 24.0611 116.325 26.4099 117.149 28.2396C117.241 28.3923 117.302 28.4534 117.455 28.4534C117.607 28.4534 117.699 28.3312 117.79 28.1785L120.445 22.566C120.811 21.7733 122.58 18.1737 122.916 18.1737C122.946 18.1432 123.038 18.1432 123.099 18.2043C123.099 18.2348 123.129 18.2959 123.129 18.357C123.343 20.3394 123.404 22.1398 123.404 24C123.404 25.4034 123.343 25.8602 123.16 27.3247C123.129 27.569 123.099 27.7828 123.038 28.0259C123.038 28.2701 123.16 28.3617 123.404 28.3617H124.869C126.089 28.3617 126.637 28.3617 126.637 28.1175C126.637 27.9953 126.576 27.9342 126.546 27.8732C125.661 26.9889 125.6 22.6882 125.6 21.3458L125.539 17.1978L125.57 15.3376C125.57 14.4533 126.393 14.3311 127.034 14.27C127.156 14.27 127.401 14.1784 127.401 13.9647C127.401 13.8425 127.34 13.7204 127.248 13.6593L127.246 13.6605Z" fill="#F3E9D9"/>
<path d="M143.939 27.9953C143.024 26.4392 142.231 24.8843 141.498 23.3282L140.584 21.3153C139.516 18.9665 138.966 17.5337 137.87 14.2701C137.686 13.6593 137.564 13.2025 137.138 13.2025C136.741 13.2025 134.911 13.3247 134.545 13.3247C133.995 13.3247 133.447 13.2941 132.929 13.2636C132.624 13.2636 132.501 13.5079 132.501 13.5079C132.501 13.8743 132.562 13.9048 133.141 13.9952C134.301 14.2701 134.88 14.3922 134.88 15.1238C134.88 15.2765 134.239 17.2284 133.384 19.0581L132.836 20.3088C132.744 20.5531 131.799 22.6271 131.28 23.603C130.487 25.1274 129.632 26.5308 128.717 27.8121C128.626 27.9037 128.595 28.0259 128.595 28.1175C128.626 28.2702 128.687 28.3312 128.748 28.3312L130.182 28.2702C130.609 28.2702 131.066 28.2702 131.524 28.3007C131.677 28.3007 131.86 28.1785 131.86 28.0564C131.86 27.9953 131.799 27.751 131.799 27.69C131.799 27.0805 132.744 22.963 133.537 22.963H138.325C138.478 22.963 138.6 22.9935 138.722 23.1462C139.211 24.2748 139.912 26.074 139.912 27.2332C139.912 27.9953 140.003 28.4228 140.461 28.4228C140.949 28.3618 141.437 28.3312 141.926 28.3007C142.231 28.3007 143.542 28.3923 143.817 28.3923C144 28.3923 144 28.2396 144 28.2091C144 28.1175 143.969 28.0564 143.939 27.9953ZM137.778 21.7428C137.595 21.8344 135.826 21.8344 135.49 21.8344C135.399 21.8344 134.117 21.7733 134.026 21.6817C133.934 21.5901 133.843 21.468 133.843 21.3153C133.843 21.2542 133.873 21.1932 133.904 21.1015L135.642 17.2284C135.703 17.1062 135.794 16.9841 135.947 16.9841C136.039 16.9841 136.191 17.1368 136.222 17.2284C136.283 17.381 136.375 17.5325 136.436 17.6852L137.931 21.2542C137.961 21.3153 137.992 21.4069 137.992 21.468C137.992 21.5901 137.87 21.7123 137.778 21.7428Z" fill="#F3E9D9"/>
<path d="M28.9041 40.3294C28.9041 40.8558 28.7783 41.2455 28.5267 41.5007C28.2751 41.7548 27.9526 41.894 27.5618 41.916V42.7051C27.9819 42.6941 28.3533 42.5964 28.6782 42.4107C29.0031 42.2263 29.2583 41.96 29.4464 41.6131C29.6333 41.2662 29.7274 40.8461 29.7274 40.3538V35.385H28.9053V40.3282L28.9041 40.3294Z" fill="#F3E9D9"/>
<path d="M32.2864 38.8026H35.0822V38.0135H32.2864V36.1667H35.4169V35.3862H31.4729V41.4543H35.5354V40.6738H32.2864V38.8026Z" fill="#F3E9D9"/>
<path d="M41.8306 39.7296L40.1426 35.4106H39.3365L39.9851 37.0706L38.9236 39.8249L37.3651 35.4106H36.4075L38.8247 41.7401L40.3869 38.0954L41.805 41.723L44.188 35.4106H43.3159L41.8306 39.7296Z" fill="#F3E9D9"/>
<path d="M46.2205 35.3862H45.4058V41.4543H46.2205V35.3862Z" fill="#F3E9D9"/>
<path d="M50.9987 38.5754C50.8509 38.441 50.6836 38.3274 50.4991 38.2358C50.3147 38.1442 50.1302 38.0636 49.9446 37.9964C49.7211 37.9121 49.5097 37.823 49.3107 37.7277C49.1116 37.6324 48.9503 37.5188 48.8233 37.3882C48.6975 37.2562 48.634 37.0962 48.634 36.9057C48.634 36.6541 48.7305 36.4525 48.9235 36.3011C49.1164 36.1496 49.3754 36.0739 49.7003 36.0739C49.9348 36.0739 50.1754 36.113 50.4222 36.1911C50.6689 36.2693 50.8949 36.3621 51.1025 36.4684L51.4128 35.8394C51.1831 35.705 50.9193 35.5902 50.62 35.4949C50.3208 35.3997 49.9751 35.352 49.583 35.352C49.2361 35.363 48.9283 35.4375 48.6596 35.5743C48.3909 35.7111 48.1796 35.8992 48.0257 36.1362C47.8718 36.3744 47.7949 36.6529 47.7949 36.9716C47.7949 37.2343 47.8462 37.459 47.95 37.6434C48.0538 37.8279 48.1882 37.983 48.3531 38.1088C48.5179 38.2346 48.6975 38.3421 48.8905 38.4313C49.0835 38.5204 49.2777 38.5986 49.4743 38.6658C49.6808 38.7439 49.8725 38.8319 50.0496 38.9308C50.2255 39.0285 50.3684 39.1482 50.4771 39.2875C50.5858 39.428 50.6408 39.5977 50.6408 39.7993C50.6408 40.0399 50.5797 40.2329 50.4564 40.3782C50.333 40.5236 50.1791 40.6298 49.9947 40.697C49.8102 40.7642 49.6197 40.7972 49.4243 40.7972C49.2447 40.7972 49.0603 40.7715 48.8697 40.7215C48.6792 40.6714 48.4972 40.603 48.3237 40.5163C48.1503 40.4295 47.9964 40.3391 47.862 40.2439L47.5017 40.8815C47.6642 40.9877 47.8486 41.0915 48.0562 41.1917C48.2627 41.2919 48.4886 41.3725 48.7317 41.4311C48.9748 41.4897 49.2276 41.5191 49.4914 41.5191C49.9055 41.5191 50.2609 41.4433 50.5577 41.2919C50.8546 41.1404 51.083 40.934 51.2417 40.6714C51.4018 40.4088 51.4812 40.1144 51.4812 39.7895C51.4812 39.5037 51.4372 39.2631 51.3505 39.0676C51.2637 38.8722 51.1465 38.7073 50.9975 38.5729L50.9987 38.5754Z" fill="#F3E9D9"/>
<path d="M56.8371 38.0135H53.6638V35.3862H52.8503V41.4543H53.6638V38.794H56.8371V41.4543H57.6506V35.3862H56.8371V38.0135Z" fill="#F3E9D9"/>
<path d="M62.0491 41.4543H62.8625V38.8771H65.3054V38.0966H62.8625V36.1667H65.6499V35.3862H62.0491V41.4543Z" fill="#F3E9D9"/>
<path d="M70.6602 39.3058C70.6602 39.5806 70.5967 39.8249 70.4709 40.0399C70.3451 40.2549 70.1704 40.4247 69.9469 40.548C69.7234 40.6714 69.4681 40.7325 69.1835 40.7325C68.9148 40.7325 68.6705 40.6714 68.4494 40.548C68.2283 40.4247 68.0524 40.2561 67.9205 40.0399C67.7886 39.8249 67.7239 39.5794 67.7239 39.3058V35.3862H66.9092V39.3315C66.9092 39.7736 67.0093 40.1596 67.2109 40.4894C67.4124 40.8192 67.686 41.0745 68.0329 41.2528C68.3798 41.4323 68.7633 41.5215 69.1823 41.5215C69.6012 41.5215 69.9933 41.4323 70.3402 41.2528C70.6871 41.0732 70.9607 40.8192 71.1622 40.4894C71.3638 40.1596 71.4639 39.7736 71.4639 39.3315V35.3862H70.6578V39.3058H70.6602Z" fill="#F3E9D9"/>
<path d="M77.6174 39.7858L73.1702 35.2018H73.1274V41.4543H73.9421L73.9263 37.1268L78.3821 41.6473H78.415V35.3862H77.6016L77.6174 39.7858Z" fill="#F3E9D9"/>
<path d="M80.9666 38.8026H83.7612V38.0135H80.9666V36.1667H84.0971V35.3862H80.1531V41.4543H84.2156V40.6738H80.9666V38.8026Z" fill="#F3E9D9"/>
<path d="M88.9366 38.5962C89.0966 38.4093 89.2102 38.2004 89.281 37.9708C89.3506 37.7412 89.386 37.5066 89.386 37.266C89.386 36.9643 89.3311 36.6956 89.2224 36.4599C89.1137 36.2254 88.9622 36.0275 88.7692 35.8687C88.5762 35.7087 88.349 35.589 88.0889 35.5084C87.8287 35.4278 87.5441 35.3862 87.2375 35.3862H85.6265V41.4543H86.4412V39.2215H87.3389C87.4061 39.2215 87.4684 39.2179 87.5307 39.2142L88.9671 41.4543H89.9076L88.3881 39.0102C88.6104 38.9015 88.7961 38.7647 88.9378 38.5962H88.9366ZM87.3206 38.4325H86.4399V36.1667H87.3804C87.593 36.1667 87.7737 36.2034 87.9215 36.2754C88.0693 36.3487 88.1903 36.4416 88.2819 36.5564C88.3747 36.6712 88.4419 36.7933 88.4834 36.9216C88.5249 37.0498 88.5457 37.1756 88.5457 37.299C88.5457 37.4224 88.5262 37.5482 88.4871 37.6764C88.448 37.8047 88.3832 37.9268 88.2941 38.0416C88.2049 38.1565 88.0803 38.2505 87.9203 38.3226C87.7603 38.3959 87.5612 38.4313 87.3206 38.4313V38.4325Z" fill="#F3E9D9"/>
<path d="M93.1957 35.1346L90.5513 41.4543H91.3574L92.0072 39.8591H94.3402L94.9668 41.4543H95.8987L93.247 35.1346H93.1969H93.1957ZM92.2943 39.1544L93.1957 36.9411L94.0641 39.1544H92.2943Z" fill="#F3E9D9"/>
<path d="M97.8543 35.3862H97.0396V41.4543H100.935V40.6738H97.8543V35.3862Z" fill="#F3E9D9"/>
<path d="M107.947 38.5754C107.799 38.441 107.632 38.3274 107.447 38.2358C107.263 38.1442 107.078 38.0636 106.893 37.9964C106.669 37.9121 106.458 37.823 106.259 37.7277C106.06 37.6324 105.899 37.5188 105.772 37.3882C105.646 37.2562 105.582 37.0962 105.582 36.9057C105.582 36.6541 105.679 36.4525 105.872 36.3011C106.065 36.1496 106.324 36.0739 106.649 36.0739C106.883 36.0739 107.124 36.113 107.37 36.1911C107.617 36.2693 107.843 36.3621 108.051 36.4684L108.361 35.8394C108.131 35.705 107.868 35.5902 107.568 35.4949C107.269 35.3997 106.923 35.352 106.531 35.352C106.184 35.363 105.877 35.4375 105.608 35.5743C105.339 35.7111 105.128 35.8992 104.974 36.1362C104.82 36.3744 104.743 36.6529 104.743 36.9716C104.743 37.2343 104.794 37.459 104.898 37.6434C105.002 37.8279 105.136 37.983 105.301 38.1088C105.466 38.2346 105.646 38.3421 105.839 38.4313C106.032 38.5204 106.226 38.5986 106.423 38.6658C106.629 38.7439 106.821 38.8319 106.998 38.9308C107.174 39.0285 107.317 39.1482 107.425 39.2875C107.534 39.428 107.589 39.5977 107.589 39.7993C107.589 40.0399 107.528 40.2329 107.405 40.3782C107.281 40.5236 107.127 40.6298 106.943 40.697C106.758 40.7642 106.568 40.7972 106.372 40.7972C106.193 40.7972 106.009 40.7715 105.818 40.7215C105.627 40.6714 105.445 40.603 105.272 40.5163C105.099 40.4295 104.945 40.3391 104.81 40.2439L104.45 40.8815C104.612 40.9877 104.797 41.0915 105.003 41.1917C105.21 41.2919 105.436 41.3725 105.679 41.4311C105.922 41.4897 106.176 41.5191 106.438 41.5191C106.853 41.5191 107.208 41.4433 107.505 41.2919C107.802 41.1404 108.03 40.934 108.189 40.6714C108.349 40.4088 108.428 40.1144 108.428 39.7895C108.428 39.5037 108.385 39.2631 108.299 39.0676C108.212 38.8722 108.095 38.7073 107.946 38.5729L107.947 38.5754Z" fill="#F3E9D9"/>
<path d="M110.612 38.8026H113.407V38.0135H110.612V36.1667H113.743V35.3862H109.797V41.4543H113.86V40.6738H110.612V38.8026Z" fill="#F3E9D9"/>
<path d="M118.581 38.5962C118.741 38.4093 118.854 38.2004 118.925 37.9708C118.995 37.7412 119.03 37.5066 119.03 37.266C119.03 36.9643 118.975 36.6956 118.867 36.4599C118.758 36.2254 118.606 36.0275 118.414 35.8687C118.221 35.7087 117.993 35.589 117.733 35.5084C117.473 35.4278 117.188 35.3862 116.882 35.3862H115.271V41.4543H116.085V39.2215H116.983C117.05 39.2215 117.113 39.2179 117.175 39.2142L118.611 41.4543H119.552L118.032 39.0102C118.255 38.9015 118.44 38.7647 118.582 38.5962H118.581ZM116.965 38.4325H116.083V36.1667H117.024C117.236 36.1667 117.417 36.2034 117.565 36.2754C117.712 36.3487 117.833 36.4416 117.925 36.5564C118.018 36.6712 118.085 36.7933 118.126 36.9216C118.168 37.0498 118.189 37.1756 118.189 37.299C118.189 37.4224 118.169 37.5482 118.13 37.6764C118.091 37.8047 118.026 37.9268 117.937 38.0416C117.848 38.1565 117.723 38.2505 117.563 38.3226C117.403 38.3959 117.204 38.4313 116.964 38.4313L116.965 38.4325Z" fill="#F3E9D9"/>
<path d="M122.771 39.7687L121.027 35.3862H120.054L122.74 41.7401L125.417 35.3862H124.452L122.771 39.7687Z" fill="#F3E9D9"/>
<path d="M127.441 35.3862H126.626V41.4543H127.441V35.3862Z" fill="#F3E9D9"/>
<path d="M132.703 40.5981C132.462 40.6934 132.188 40.741 131.881 40.741C131.54 40.741 131.232 40.6824 130.958 40.5651C130.684 40.4479 130.449 40.2842 130.256 40.0741C130.064 39.864 129.916 39.6185 129.812 39.3351C129.708 39.053 129.657 38.7489 129.657 38.4239C129.657 38.099 129.714 37.7888 129.829 37.5091C129.944 37.2294 130.101 36.9827 130.303 36.7701C130.504 36.5576 130.737 36.3927 130.999 36.2754C131.262 36.1582 131.541 36.0996 131.838 36.0996C132.135 36.0996 132.387 36.1496 132.627 36.251C132.868 36.3512 133.072 36.4611 133.24 36.5784L133.568 35.8064C133.355 35.6782 133.1 35.5646 132.804 35.4669C132.508 35.3691 132.178 35.3203 131.814 35.3203C131.378 35.3203 130.976 35.3985 130.609 35.5548C130.243 35.7111 129.924 35.931 129.653 36.2132C129.382 36.4953 129.173 36.8288 129.028 37.2123C128.882 37.5958 128.809 38.0135 128.809 38.4667C128.809 38.8808 128.879 39.2716 129.019 39.6381C129.158 40.0045 129.362 40.3282 129.627 40.6079C129.894 40.8876 130.215 41.1087 130.592 41.2711C130.97 41.4336 131.391 41.5178 131.855 41.5227C132.135 41.5227 132.392 41.4946 132.624 41.4385C132.856 41.3823 133.058 41.3126 133.232 41.2284C133.405 41.1441 133.542 41.0684 133.644 41.0012L133.299 40.2793C133.143 40.3966 132.944 40.5028 132.703 40.5981Z" fill="#F3E9D9"/>
<path d="M135.825 38.8026H138.62V38.0135H135.825V36.1667H138.955V35.3862H135.01V41.4543H139.073V40.6738H135.825V38.8026Z" fill="#F3E9D9"/>
<path d="M143.869 39.0701C143.783 38.8746 143.665 38.7098 143.516 38.5754C143.368 38.441 143.201 38.3274 143.017 38.2358C142.832 38.1442 142.648 38.0636 142.463 37.9964C142.24 37.9121 142.029 37.823 141.829 37.7277C141.63 37.6324 141.469 37.5188 141.342 37.3882C141.216 37.2562 141.153 37.0962 141.153 36.9057C141.153 36.6541 141.249 36.4525 141.442 36.3011C141.635 36.1496 141.894 36.0739 142.219 36.0739C142.454 36.0739 142.694 36.113 142.941 36.1911C143.188 36.2693 143.414 36.3621 143.621 36.4684L143.932 35.8394C143.702 35.705 143.438 35.5902 143.139 35.4949C142.84 35.3997 142.494 35.352 142.102 35.352C141.755 35.363 141.447 35.4375 141.178 35.5743C140.91 35.7111 140.698 35.8992 140.545 36.1362C140.391 36.3744 140.314 36.6529 140.314 36.9716C140.314 37.2343 140.365 37.459 140.469 37.6434C140.573 37.8279 140.707 37.983 140.872 38.1088C141.037 38.2346 141.216 38.3421 141.409 38.4313C141.602 38.5204 141.796 38.5986 141.993 38.6658C142.2 38.7439 142.391 38.8319 142.568 38.9308C142.744 39.0285 142.887 39.1482 142.996 39.2875C143.105 39.428 143.16 39.5977 143.16 39.7993C143.16 40.0399 143.099 40.2329 142.975 40.3782C142.852 40.5236 142.698 40.6298 142.513 40.697C142.329 40.7642 142.138 40.7972 141.943 40.7972C141.763 40.7972 141.579 40.7715 141.389 40.7215C141.198 40.6714 141.016 40.603 140.843 40.5163C140.669 40.4295 140.515 40.3391 140.381 40.2439L140.021 40.8815C140.183 40.9877 140.367 41.0915 140.575 41.1917C140.781 41.2919 141.007 41.3725 141.251 41.4311C141.494 41.4897 141.748 41.5191 142.01 41.5191C142.424 41.5191 142.78 41.4433 143.077 41.2919C143.373 41.1404 143.602 40.934 143.761 40.6714C143.919 40.4088 144 40.1144 144 39.7895C144 39.5037 143.957 39.2631 143.87 39.0676L143.869 39.0701Z" fill="#F3E9D9"/>
<path d="M17.061 36.775C16.9706 36.7371 16.8497 36.6968 16.7031 36.6553C16.5797 36.6211 16.4381 36.5869 16.2817 36.5551C15.6307 36.4208 14.7268 36.3243 13.8059 36.4098C13.299 36.4562 12.5832 36.4037 11.8149 36.3512C11.2555 36.3133 10.6668 36.2742 10.111 36.2742C10.1061 36.2742 10.1012 36.2742 10.0964 36.2742C10.0915 36.2449 10.0866 36.2144 10.0866 36.1838C10.0854 36.08 10.1208 35.9725 10.1281 35.8748C10.1574 35.4583 10.0389 35.1175 10.1354 34.7132C10.1477 34.6619 10.1635 34.6131 10.1794 34.563C10.2674 34.5618 10.3541 34.552 10.4408 34.5361C10.5165 34.5215 10.591 34.5031 10.6643 34.4799C10.8732 34.4152 11.0686 34.3199 11.236 34.2234C11.4302 34.111 11.6195 33.9816 11.7868 33.8313C11.8418 33.7678 11.8931 33.7055 11.9468 33.6432C12.1642 33.3867 12.3817 33.1278 12.5942 32.8652C12.6919 32.7443 12.7896 32.6233 12.8861 32.5012C12.9594 32.4084 13.0315 32.3168 13.1035 32.2252C13.1646 32.1458 13.2257 32.0676 13.2855 31.9894C13.4846 31.7305 13.6739 31.4764 13.8547 31.2248C13.9671 31.0697 14.0758 30.9158 14.1821 30.7631C14.5143 30.2867 14.8135 29.8238 15.0847 29.3731C15.682 28.3801 16.1364 27.4457 16.4686 26.5528C17.0549 24.9747 17.2564 23.5236 17.1831 22.0872C17.1379 21.2237 16.9938 20.3662 16.7739 19.4905C16.7153 19.2572 16.6506 19.0214 16.581 18.7845C16.2243 17.5679 15.7357 16.305 15.1763 14.9357C15.031 14.5803 14.8807 14.2175 14.7268 13.8474C14.5839 13.503 14.4386 13.1524 14.2895 12.7921C13.8388 11.7014 13.4956 10.6668 13.2367 9.69332C12.88 8.3473 12.6858 7.11975 12.6015 6.02412C12.4488 4.05761 12.6455 2.51616 12.8727 1.48527C13.0852 0.51789 13.3234 -0.0012207 13.3234 -0.0012207C12.7896 0.707212 12.3633 1.41931 12.0274 2.13385C11.8858 2.43432 11.7587 2.7409 11.6464 3.05237C11.6012 3.17573 11.5596 3.2991 11.5193 3.42369C11.4326 3.69485 11.3569 3.966 11.2934 4.23838C11.1993 4.63902 11.1285 5.04453 11.0796 5.45249C10.9636 6.42353 10.977 7.3958 11.0833 8.36562C11.115 8.65754 11.1553 8.94946 11.203 9.24017C11.4412 10.6888 11.865 12.1325 12.3585 13.5628C12.5637 14.1577 12.7811 14.7488 13.0022 15.3376C13.2232 15.9263 13.448 16.5126 13.6678 17.0952C13.9561 17.8586 14.237 18.6147 14.4923 19.3634C14.5595 19.5613 14.6242 19.758 14.6877 19.9546C15.0859 21.1956 15.2435 22.3254 15.2386 23.3429C15.2178 27.2429 12.8031 29.4635 12.4549 29.7627C12.4281 29.7859 12.4134 29.7969 12.4134 29.7969C12.4134 29.5526 12.4036 29.3071 12.3853 29.0604C12.367 28.7941 12.3377 28.5279 12.301 28.2604C12.2888 28.2066 12.2803 28.1431 12.273 28.0686C12.2168 27.7022 12.1447 27.3345 12.0592 26.9656C12.0641 26.9595 12.0702 26.9522 12.0739 26.9461C12.3267 26.631 12.6418 26.2084 13.0376 25.6404C13.5616 24.8892 13.7375 23.9121 13.6739 22.803C13.6556 22.4781 13.6165 22.1422 13.5603 21.7978C13.2941 20.1684 12.6333 18.3362 11.8711 16.5456C11.8332 16.4564 11.7954 16.3685 11.7575 16.2805C11.4717 15.6173 11.1724 14.9626 10.8769 14.3262C10.2808 13.0425 10.0023 11.6501 9.90215 10.348C9.76901 8.62823 9.94245 7.06479 10.0964 6.11695C10.1477 5.8006 10.2038 5.48303 10.2808 5.17278C10.2808 5.17278 9.44655 5.86534 8.94454 7.38969C8.66239 8.3363 8.53536 9.33666 8.52314 10.3578C8.50116 12.2583 8.87858 14.2334 9.39036 16.0729C9.90459 17.9221 10.5556 19.6346 11.0747 20.9953C11.2127 21.3568 11.341 21.6927 11.4558 22.0005C12.1068 23.7557 11.9994 25.026 11.7648 25.8236C11.7795 25.8712 11.7929 25.9177 11.8076 25.9653C11.8137 25.9873 11.8198 26.008 11.8259 26.03C11.8051 25.9616 11.7856 25.8932 11.7648 25.8236C11.7648 25.8273 11.7624 25.8322 11.7612 25.8358C11.7062 25.6502 11.65 25.4657 11.5902 25.2801C11.5291 25.0895 11.4668 24.899 11.4008 24.7084C11.3886 24.6718 11.3764 24.6364 11.363 24.6009C11.3166 24.4654 11.2689 24.3298 11.2201 24.1954C11.1981 24.1344 11.1761 24.0745 11.1553 24.0147C10.8011 23.0412 10.4042 22.0616 10.0072 21.082C9.49541 19.819 8.98607 18.5548 8.57322 17.3041C8.52925 17.1722 8.4865 17.0403 8.44497 16.9083C8.401 16.7679 8.35825 16.6286 8.31672 16.4894C8.08831 15.715 7.9222 14.9858 7.80372 14.3079C7.72433 13.856 7.66692 13.4272 7.62539 13.0242C7.56798 12.4623 7.53745 11.898 7.53989 11.3325C7.53989 11.0283 7.55088 10.7523 7.56554 10.5044C7.5863 10.1623 7.61806 9.87776 7.6486 9.65668C7.69868 9.29147 7.74753 9.09604 7.74753 9.09604C7.74753 9.09604 7.15636 9.51377 6.46258 11.6562C6.26959 12.2522 6.06928 12.9814 5.87141 13.8719C5.85797 13.9305 5.84576 13.9903 5.83476 14.049C5.64666 15.0249 5.68453 16.0252 5.87263 17.0451C5.92881 17.3505 5.99844 17.6583 6.08027 17.9661C6.1389 18.1884 6.20242 18.4107 6.27204 18.6342C6.73496 20.1244 7.4263 21.6463 8.12007 23.1841C8.19824 23.3563 8.27641 23.5285 8.35336 23.702C8.58788 24.2235 8.81873 24.7451 9.03981 25.2691C9.29143 25.8664 9.52839 26.4649 9.73847 27.0634C9.82764 27.3162 9.90337 27.5629 9.96933 27.8011C10.2319 28.7587 10.3162 29.6015 10.2906 30.3283C10.2759 30.746 10.2246 31.1625 10.1318 31.5692C10.0414 31.9601 9.91314 32.3424 9.74214 32.7052C9.47342 33.2793 9.1815 33.631 9.05935 33.7654C9.02149 33.8069 8.99951 33.8277 8.99951 33.8277C9.03981 33.8961 9.08134 33.9596 9.12409 34.017C9.27799 34.2222 9.44777 34.359 9.62488 34.4445C9.5919 34.6241 9.54671 34.7938 9.51007 34.9697C9.46854 35.1725 9.51007 35.3789 9.52594 35.5817C9.54304 35.7856 9.56137 35.9701 9.53938 36.1789C9.53572 36.2156 9.52839 36.2522 9.52106 36.2901C9.32441 36.3023 9.13508 36.3218 8.95798 36.3512C8.00648 36.5075 6.65068 36.4733 5.4097 36.4684C4.64631 36.4648 3.9281 36.4721 3.37357 36.5393C3.27097 36.5515 3.17448 36.5661 3.08287 36.5832C3.03645 36.5918 2.99126 36.6003 2.94851 36.6113C2.57841 36.6956 2.34756 36.8055 2.24863 36.9717C2.20832 37.0376 2.19 37.1133 2.19122 37.2001C2.19244 37.2477 2.21198 37.3222 2.25107 37.4004C2.31092 37.5225 2.41718 37.6569 2.57475 37.7228C2.60773 37.7363 2.64315 37.7497 2.67979 37.7631C2.75308 37.7888 2.83369 37.8132 2.92164 37.8352C3.39678 37.9586 4.08933 38.0429 4.92968 38.1015C6.29158 38.1955 8.04312 38.2175 9.88749 38.2175H9.89726C11.6158 38.2175 13.2 38.1589 14.4679 38.0416C15.2301 37.972 15.8786 37.8816 16.3697 37.7705C16.4881 37.7436 16.5968 37.7155 16.697 37.6862C16.8155 37.652 16.9205 37.6154 17.0109 37.5787C17.1697 37.5127 17.2845 37.4309 17.3505 37.3503C17.3932 37.2978 17.4152 37.2465 17.414 37.1988C17.4115 37.1341 17.3969 37.0779 17.3749 37.0303C17.3175 36.9094 17.2027 36.8336 17.061 36.7738V36.775ZM12.3817 29.0824C12.3841 29.218 12.3927 29.9264 12.3414 30.8168C12.3914 29.9276 12.3841 29.218 12.3817 29.0824ZM12.3414 30.8229C12.3414 30.8376 12.3401 30.8523 12.3389 30.8669C12.3352 30.9243 12.3316 30.983 12.3267 31.0416C12.3316 30.9683 12.3365 30.8938 12.3414 30.8229ZM11.9908 26.6285C11.9908 26.6285 11.992 26.6346 11.9932 26.6383C11.9884 26.62 11.9835 26.6004 11.9786 26.5821C11.9823 26.598 11.9871 26.6127 11.9908 26.6285ZM11.9016 26.3012C11.9053 26.3158 11.909 26.3305 11.9139 26.3452C11.9016 26.3012 11.8882 26.2572 11.876 26.212C11.8845 26.2413 11.8931 26.2719 11.9016 26.3012Z" fill="#F3E9D9"/>
<path d="M2.50155 30.812C3.25884 31.3604 3.6155 31.717 4.01491 33.2011C4.06621 33.3916 4.11751 33.5663 4.16759 33.7275C4.27996 34.0805 4.39234 34.3676 4.51692 34.6094C4.62685 34.8244 4.84793 34.9868 5.08367 35.0369C5.18993 35.0589 5.28032 35.0516 5.32673 35.01C5.38292 34.9612 5.37681 34.8635 5.26078 34.712C5.05435 34.4433 4.79907 34.0891 4.47417 33.2011C4.13217 32.2642 4.06499 31.3531 3.85124 30.3845C3.73398 29.8507 3.57153 29.2986 3.29304 28.716C3.19288 28.5047 3.07685 28.2897 2.94249 28.0698C2.85333 27.9233 2.75439 27.7742 2.64812 27.6228C2.16199 26.9363 1.76991 26.4294 1.4499 26.0044C1.29844 25.8028 1.16408 25.6209 1.04316 25.4462C0.80742 25.1042 0.626648 24.7939 0.48374 24.4361C0.37381 24.1588 0.285867 23.8534 0.213802 23.4846C0.156395 23.1926 0.112423 23.0681 0.0782227 23.0681C0.0696727 23.0681 0.0611226 23.0766 0.053794 23.0937C-0.0353708 23.2928 -0.0170493 24.6254 0.0831085 25.7882C0.113644 26.14 0.151509 26.4759 0.195481 26.7605C0.310296 27.4933 0.59489 28.1883 0.949107 28.8357C1.43768 29.7273 2.05451 30.4932 2.49789 30.8156L2.50155 30.812Z" fill="#F3E9D9"/>
<path d="M21.0331 19.2437C20.5629 18.0687 19.9534 16.8668 19.2962 15.384C18.9823 14.6743 18.8077 14.0722 18.7185 13.5726C18.495 12.3145 18.815 11.7136 18.815 11.7136C18.815 11.7136 18.8113 11.7136 18.804 11.7136C18.7893 11.7136 18.7625 11.716 18.7246 11.727C18.6709 11.7417 18.5976 11.7759 18.5109 11.8467C18.4364 11.909 18.3521 11.9994 18.2629 12.1313C18.1188 12.3475 17.9612 12.6736 17.8159 13.1683C17.7389 13.4285 17.6656 13.7363 17.5972 14.0978C17.4604 15.0163 17.4641 15.7907 17.5496 16.4906C17.7756 18.335 18.5756 19.6639 18.9115 21.7464C19.0287 22.472 19.0898 23.2891 19.0495 24.2516C18.9225 27.3455 17.96 29.4867 16.8778 30.9439C16.2915 31.7341 15.6686 32.3241 15.125 32.7552C14.6304 33.1486 14.2029 33.5089 13.856 33.8289C13.1182 34.508 12.7518 34.999 12.9118 35.2006C13.0877 35.4229 13.6117 35.3032 14.5546 34.9172C14.8746 34.7865 15.2435 34.624 15.6625 34.4347C15.7919 34.3761 15.9177 34.3175 16.0411 34.2576C16.625 33.9767 17.1526 33.6811 17.6302 33.3684C18.1542 33.024 18.6171 32.6575 19.0263 32.2642C19.5112 31.7976 19.9204 31.2932 20.2661 30.7411C20.9696 29.6174 21.4093 28.3007 21.6841 26.7189C21.7293 26.4551 21.7709 26.1851 21.8075 25.9079C22.1935 23.0155 21.7977 21.1638 21.0282 19.2425L21.0331 19.2437Z" fill="#F3E9D9"/>
<path d="M3.09516 35.1737C3.12692 35.2433 3.15623 35.3166 3.18432 35.3923C3.23807 35.545 3.28326 35.7124 3.31746 35.9017C3.31746 35.9017 3.5935 35.4094 3.63748 34.7706C3.66801 34.3358 3.59106 33.8326 3.24539 33.3696C2.87896 32.8798 2.51986 32.4792 2.20839 32.125C2.05205 31.9479 1.90792 31.7818 1.78089 31.623C1.71616 31.5424 1.65631 31.463 1.60134 31.386C1.47675 31.2089 1.37782 31.0379 1.31308 30.8633C1.31308 30.8633 0.955201 32.5439 1.65386 33.4234C2.02518 33.8888 2.50276 34.2625 2.84843 34.7486C2.94004 34.8781 3.02309 35.0174 3.09516 35.1749V35.1737Z" fill="#F3E9D9"/>
<path d="M2.76778 25.7528C2.99253 26.3305 3.22704 26.8386 3.45179 27.2991C3.83288 28.0808 4.18831 28.7257 4.43138 29.3413C4.4949 29.5026 4.54986 29.6626 4.59627 29.8214C4.6549 30.0241 4.7062 30.2342 4.74895 30.4443C4.81247 30.7509 4.85888 31.0611 4.89553 31.3604C5.02866 32.4572 5.00423 33.3904 5.00423 33.3904C5.00423 33.3904 5.99115 32.8102 5.93619 31.2053C5.91665 30.6287 5.76275 29.9191 5.38044 29.0567C5.19356 28.6354 5.01889 28.2396 4.85766 27.8671C4.72086 27.5495 4.59383 27.249 4.47657 26.962C4.25549 26.4197 4.07228 25.9311 3.93181 25.4828C3.9025 25.4071 3.87563 25.3179 3.8512 25.2117C3.81578 25.0859 3.78402 24.9649 3.75593 24.8452C3.5495 23.9621 3.55561 23.2452 3.83043 22.5807C4.10281 21.9236 4.25427 21.5767 4.33977 21.3947C4.44604 21.1663 4.44848 21.1956 4.44848 21.1956C4.44848 21.1956 4.47047 21.2408 4.50955 21.2799C4.58162 21.3532 4.65857 21.4704 4.73796 21.6219C4.83445 21.8039 4.93583 22.0347 5.04332 22.301C5.4183 23.2232 5.86535 24.557 6.404 25.666C6.70692 26.289 6.98418 26.9144 7.17839 27.58C7.38115 28.2738 7.50574 28.9957 7.50451 29.7188C7.50329 30.4712 7.36283 31.2199 7.02327 31.9174C6.6605 32.6624 6.49927 33.1144 6.44186 33.3855C6.41744 33.5016 6.42721 33.6359 6.46996 33.7703C6.47362 33.7825 6.47729 33.7935 6.48217 33.8057C6.51271 33.8912 6.5579 33.9779 6.61409 34.0585C6.67882 34.1514 6.75944 34.2381 6.85471 34.3126C6.94998 34.3871 7.06113 34.4494 7.18572 34.4921C7.3042 34.5337 7.43489 34.5581 7.57658 34.5605H7.60101C7.612 34.5508 8.04805 34.1624 8.49143 33.2939C8.61358 33.0545 8.73694 32.7785 8.85054 32.4633C9.07528 31.8465 9.2304 31.2004 9.3159 30.5493C9.39652 29.935 9.28781 29.119 9.06062 28.2384C8.88962 27.5739 8.649 26.8728 8.37173 26.1925C7.99187 25.2617 7.54238 24.3713 7.10022 23.6702C6.62386 22.9154 6.27941 22.1727 6.02902 21.4887C5.83603 20.9586 5.69923 20.4639 5.60396 20.0254C5.56243 19.8373 5.52945 19.659 5.50136 19.4929C5.36334 18.6684 5.37677 18.1493 5.37677 18.1493C5.37677 18.1493 5.15936 18.2446 4.85888 18.6037C4.60971 18.9017 4.30313 19.3805 4.01731 20.1354C4.00876 20.1586 4.00021 20.1818 3.99166 20.205C3.98311 20.227 3.97579 20.249 3.96723 20.271C3.95868 20.2929 3.95136 20.3149 3.94403 20.3369C3.92815 20.3821 3.91227 20.4273 3.89639 20.4737C3.86708 20.5604 3.84021 20.6472 3.81333 20.7351C3.72783 21.0136 3.65455 21.2957 3.58981 21.5803C3.47255 22.0958 3.38705 22.6198 3.31865 23.1426C3.31865 23.1426 3.20262 22.8726 3.10124 22.3889C3.09879 22.3975 3.09635 22.406 3.09391 22.4134C3.11467 22.5294 3.14032 22.6528 3.16964 22.7798C3.16597 22.7615 3.15987 22.7419 3.1562 22.7236C3.10979 22.516 3.07314 22.3205 3.05604 22.1495C2.9168 21.3312 2.85817 20.0548 3.31865 18.5023C3.31865 18.5023 2.22302 19.1436 1.90789 20.8145C1.78819 21.4509 1.78209 22.2362 1.99339 23.1926C2.21203 24.1857 2.48075 25.0223 2.76412 25.7503L2.76778 25.7528ZM4.18587 20.6349C4.17976 20.6215 4.17366 20.6081 4.16755 20.5946C4.15045 20.5556 4.13213 20.5165 4.11503 20.4774C4.13824 20.5299 4.16144 20.5824 4.18587 20.6349Z" fill="#F3E9D9"/>
</g>
<defs>
<linearGradient id="paint0_linear_36_4198" x1="9.80193" y1="37.9916" x2="9.80193" y2="53.2155" gradientUnits="userSpaceOnUse">
<stop stop-color="#F3E9D9"/>
<stop offset="1" stop-color="#F3E9D9" stop-opacity="0"/>
</linearGradient>
<clipPath id="clip0_36_4198">
<rect width="144" height="55.3995" fill="white"/>
</clipPath>
</defs>
</svg>
